HIERARCHY
ROOT Hips
{
	OFFSET 0.000000 89.005402 0.000000
	CHANNELS 6 Xposition Yposition Zposition Xrotation Yrotation Zrotation
	JOINT Spine
	{
		OFFSET 0.116900 10.681000 0.373400
		CHANNELS 3 Xrotation Yrotation Zrotation
		JOINT Spine1
		{
			OFFSET 0.000000 13.840401 0.053500
			CHANNELS 3 Xrotation Yrotation Zrotation
			JOINT Spine2
			{
				OFFSET 0.000000 14.712700 -0.366200
				CHANNELS 3 Xrotation Yrotation Zrotation
				JOINT Neck
				{
					OFFSET 0.000000 35.415497 -3.314200
					CHANNELS 3 Xrotation Yrotation Zrotation
					JOINT Head
					{
						OFFSET 0.000000 16.899200 1.218300
						CHANNELS 3 Xrotation Yrotation Zrotation
						JOINT HeadTop_End
						{
							OFFSET 0.000000 22.206207 2.192500
							CHANNELS 3 Xrotation Yrotation Zrotation
							End Site
							{
								OFFSET 0.000000 22.314178 0.000000
							}
						}
					}
				}
				JOINT LeftShoulder
				{
					OFFSET 12.896400 26.716293 -4.548400
					CHANNELS 3 Xrotation Yrotation Zrotation
					JOINT LeftArm
					{
						OFFSET 19.027000 -4.857010 -1.718400
						CHANNELS 3 Xrotation Yrotation Zrotation
						JOINT LeftForeArm
						{
							OFFSET 24.179897 0.000000 0.000000
							CHANNELS 3 Xrotation Yrotation Zrotation
							JOINT LeftHand
							{
								OFFSET 27.156403 0.000000 0.000000
								CHANNELS 3 Xrotation Yrotation Zrotation
								JOINT LeftHandIndex1
								{
									OFFSET 16.441200 0.000000 0.000000
									CHANNELS 3 Xrotation Yrotation Zrotation
									JOINT LeftHandIndex2
									{
										OFFSET 4.821899 0.000000 0.000000
										CHANNELS 3 Xrotation Yrotation Zrotation
										JOINT LeftHandIndex3
										{
											OFFSET 6.386497 0.000000 0.000000
											CHANNELS 3 Xrotation Yrotation Zrotation
											JOINT LeftHandIndex4
											{
												OFFSET 5.188988 0.000000 0.000000
												CHANNELS 3 Xrotation Yrotation Zrotation
												End Site
												{
													OFFSET -0.178703 5.185913 0.000177
												}
											}
										}
									}
								}
								JOINT LeftHandThumb1
								{
									OFFSET 6.534897 -5.032593 5.900300
									CHANNELS 3 Xrotation Yrotation Zrotation
									JOINT LeftHandThumb2
									{
										OFFSET 3.818176 -2.204422 2.204423
										CHANNELS 3 Xrotation Yrotation Zrotation
										JOINT LeftHandThumb3
										{
											OFFSET 3.252098 -1.877594 1.877601
											CHANNELS 3 Xrotation Yrotation Zrotation
											JOINT LeftHandThumb4
											{
												OFFSET 5.251778 -3.032120 3.032117
												CHANNELS 3 Xrotation Yrotation Zrotation
												End Site
												{
													OFFSET 0.000023 6.780014 0.000000
												}
											}
										}
									}
								}
							}
						}
					}
				}
				JOINT RightShoulder
				{
					OFFSET -12.896300 26.716293 -4.548400
					CHANNELS 3 Xrotation Yrotation Zrotation
					JOINT RightArm
					{
						OFFSET -19.027000 -4.857010 -1.718400
						CHANNELS 3 Xrotation Yrotation Zrotation
						JOINT RightForeArm
						{
							OFFSET -24.179897 0.000000 0.000000
							CHANNELS 3 Xrotation Yrotation Zrotation
							JOINT RightHand
							{
								OFFSET -27.156403 0.000000 0.000000
								CHANNELS 3 Xrotation Yrotation Zrotation
								JOINT RightHandThumb1
								{
									OFFSET -6.591202 -4.852203 5.988100
									CHANNELS 3 Xrotation Yrotation Zrotation
									JOINT RightHandThumb2
									{
										OFFSET -3.818176 -2.204422 2.204423
										CHANNELS 3 Xrotation Yrotation Zrotation
										JOINT RightHandThumb3
										{
											OFFSET -3.252098 -1.877594 1.877601
											CHANNELS 3 Xrotation Yrotation Zrotation
											JOINT RightHandThumb4
											{
												OFFSET -5.251778 -3.032120 3.032117
												CHANNELS 3 Xrotation Yrotation Zrotation
												End Site
												{
													OFFSET -0.000023 6.780014 0.000000
												}
											}
										}
									}
								}
								JOINT RightHandIndex1
								{
									OFFSET -16.029404 0.000000 0.000000
									CHANNELS 3 Xrotation Yrotation Zrotation
									JOINT RightHandIndex2
									{
										OFFSET -5.213303 0.000000 0.000000
										CHANNELS 3 Xrotation Yrotation Zrotation
										JOINT RightHandIndex3
										{
											OFFSET -6.386528 0.000000 0.000000
											CHANNELS 3 Xrotation Yrotation Zrotation
											JOINT RightHandIndex4
											{
												OFFSET -5.189026 0.000000 0.000000
												CHANNELS 3 Xrotation Yrotation Zrotation
												End Site
												{
													OFFSET 0.236702 5.183624 0.001972
												}
											}
										}
									}
								}
							}
						}
					}
				}
			}
		}
	}
	JOINT LeftUpLeg
	{
		OFFSET 14.073000 -7.904099 -1.463000
		CHANNELS 3 Xrotation Yrotation Zrotation
		JOINT LeftLeg
		{
			OFFSET -0.109806 -34.073280 4.093200
			CHANNELS 3 Xrotation Yrotation Zrotation
			JOINT LeftFoot
			{
				OFFSET 0.109806 -29.899420 -6.319000
				CHANNELS 3 Xrotation Yrotation Zrotation
				JOINT LeftToeBase
				{
					OFFSET 1.551100 -14.988700 20.535801
					CHANNELS 3 Xrotation Yrotation Zrotation
					JOINT LeftToe_End
					{
						OFFSET 0.221200 0.570800 13.248301
						CHANNELS 3 Xrotation Yrotation Zrotation
						End Site
						{
							OFFSET 0.000000 13.262435 0.000000
						}
					}
				}
			}
		}
	}
	JOINT RightUpLeg
	{
		OFFSET -13.839300 -7.904099 -1.463000
		CHANNELS 3 Xrotation Yrotation Zrotation
		JOINT RightLeg
		{
			OFFSET 0.109694 -34.073219 4.093300
			CHANNELS 3 Xrotation Yrotation Zrotation
			JOINT RightFoot
			{
				OFFSET -0.109694 -29.899384 -6.319200
				CHANNELS 3 Xrotation Yrotation Zrotation
				JOINT RightToeBase
				{
					OFFSET -1.551100 -14.988700 20.535801
					CHANNELS 3 Xrotation Yrotation Zrotation
					JOINT RightToe_End
					{
						OFFSET -0.221200 0.570900 13.248299
						CHANNELS 3 Xrotation Yrotation Zrotation
						End Site
						{
							OFFSET 0.000000 13.262440 0.000000
						}
					}
				}
			}
		}
	}
}
MOTION
Frames: 9
Frame Time: 0.033333
-0.255078 84.708511 1.554215 2.379669 -11.975827 -0.463312 9.425529 1.985997 0.384582 2.870545 4.029878 0.917350 -9.001473 3.754919 1.727679 -3.884495 2.070289 -6.983456 5.913217 -0.105832 7.514885 -0.000000 0.000000 0.000000 -1.295773 0.077922 -4.827727 -3.652866 -0.069584 -73.007100 -0.000086 -15.717662 -0.000493 2.306687 0.164965 -5.013184 0.273646 -4.246499 -3.910734 0.104300 -0.791805 -17.447728 -0.023016 -0.376194 -8.071590 -0.000002 0.000000 -0.000001 8.265280 -7.734443 18.880820 5.407294 20.572716 -9.835137 1.742524 3.611568 -0.678882 0.000000 -0.000000 -0.000002 -1.295776 -0.077840 4.827744 3.909185 3.069873 67.997764 0.000001 18.089251 0.000032 2.313878 -1.592976 -2.170106 8.265285 7.734435 -18.880827 5.410449 -20.570201 9.834352 1.742531 -3.611583 0.678898 -0.000000 0.000000 -0.000000 0.272383 4.252704 3.917213 0.097395 0.794937 17.452783 -0.022330 0.377817 8.076712 -0.000000 0.000001 -0.000001 -17.880964 11.977542 15.148987 22.696141 4.211819 1.753448 -5.309432 6.162591 -12.832028 -3.075431 -2.348394 -2.459406 0.000000 0.000000 0.000000 -10.280454 -8.349080 -8.305420 22.074326 -4.480014 -1.645422 -13.151487 -1.370951 10.681770 -5.412304 2.348673 2.459500 0.000000 0.000001 -0.000000 
-0.386663 84.769524 1.701538 2.357170 -12.092427 -0.553261 9.266798 2.051817 0.310388 2.557983 4.053213 0.939936 -9.331746 3.755823 1.714790 -3.548497 2.076704 -7.100159 6.352245 -0.223009 7.917729 -0.000000 0.000000 -0.000000 -1.298040 0.518342 -4.625570 -3.209253 0.570037 -73.051885 -0.068311 -15.324619 0.049621 1.845553 0.843000 -5.269003 0.246054 -4.086579 -4.217376 0.103980 -0.792662 -17.470577 -0.023643 -0.380796 -8.190331 0.000001 0.000000 0.000000 8.406385 -7.732105 18.951075 5.387109 20.519406 -9.831849 1.894947 3.822709 -0.660680 -0.000000 -0.000000 -0.000001 -1.090776 -0.221468 4.587337 5.231288 2.077736 66.847137 0.258791 21.987262 -2.186793 -2.472674 0.981094 -3.709867 8.559755 7.772336 -18.893461 5.377005 -20.527152 9.829665 1.947180 -3.885656 0.674302 0.000001 0.000000 0.000001 0.307693 4.247802 4.292101 0.116171 0.809881 17.850918 -0.010839 0.385236 8.267640 0.000000 -0.000000 -0.000002 -17.584870 12.181385 15.403164 22.385564 4.162936 1.645648 -5.260530 6.146737 -12.901834 -3.075443 -2.348396 -2.459419 0.000000 0.000000 0.000000 -9.894238 -8.288916 -8.061626 21.653981 -4.491804 -1.643874 -13.085866 -1.378282 10.592996 -5.411682 2.361165 2.439753 -0.000000 0.000001 -0.000000 
-0.588008 84.871010 1.834893 2.491858 -12.319572 -0.512287 9.050910 2.129038 0.194418 2.138222 4.077153 0.902681 -9.773074 3.760715 1.645172 -3.261060 2.110985 -7.201848 6.951738 -0.315532 8.256834 -0.000000 0.000000 -0.000000 -1.269205 0.787130 -4.448025 -2.422612 1.433067 -72.887066 -0.209955 -14.828721 -0.026786 0.697763 1.968206 -4.653562 0.179722 -3.651638 -5.048965 0.103237 -0.794974 -17.532930 -0.025494 -0.394636 -8.512189 0.000000 0.000001 -0.000001 8.790535 -7.727464 19.138397 5.328386 20.368287 -9.819822 2.308280 4.395762 -0.619880 0.000000 0.000000 0.000000 -0.563214 -0.411098 4.110369 5.491284 1.179597 65.855127 0.612853 24.259811 -4.631673 -8.403316 6.061221 -6.033907 9.391529 7.882796 -18.938740 5.282711 -20.405086 9.817167 2.501018 -4.629851 0.672475 -0.000000 0.000000 0.000003 0.404719 4.237784 5.310082 0.166918 0.850305 18.931671 0.027908 0.405382 8.786103 0.000000 -0.000003 -0.000001 -17.214969 12.387695 15.568737 21.694561 4.199093 1.516203 -5.019234 6.176831 -13.013416 -3.075416 -2.348404 -2.459419 0.000000 0.000000 -0.000000 -9.706744 -8.225487 -7.839369 21.173020 -4.440928 -1.683065 -12.956838 -1.336688 10.444265 -5.411060 2.373642 2.420010 -0.000000 -0.000003 -0.000000 
-0.799215 84.897629 1.983983 2.621550 -12.556171 -0.469418 8.851169 2.206670 0.069737 1.755254 4.079816 0.869691 -10.180953 3.765778 1.573027 -3.076536 2.188525 -7.349179 7.652838 -0.403341 8.578678 0.000000 0.000000 0.000000 -1.228709 1.054437 -4.090604 -1.603243 2.307867 -72.806053 -0.426488 -14.345006 -0.103326 -0.533786 3.195413 -3.994010 0.105466 -3.008913 -6.272066 0.102166 -0.798424 -17.624673 -0.023248 -0.417735 -8.986445 -0.000000 -0.000001 -0.000002 9.359587 -7.722345 19.407498 5.232154 20.133846 -9.797101 2.915161 5.240749 -0.580422 -0.000000 0.000001 -0.000002 0.211470 -0.657643 3.297330 4.662611 0.468886 65.126858 0.762535 25.874365 -6.902095 -13.167476 11.971214 -7.744810 10.682080 8.062977 -19.028666 5.132753 -20.217257 9.788821 3.312984 -5.726839 0.698773 0.000001 -0.000000 0.000005 0.549774 4.231959 6.810332 0.240796 0.909315 20.524435 0.085006 0.429123 9.550250 0.000000 0.000004 -0.000000 -16.975081 12.529007 15.767121 21.360908 4.253670 1.400707 -4.974002 6.256982 -13.171846 -3.075426 -2.348389 -2.459421 -0.000000 0.000000 -0.000000 -9.657685 -8.069185 -7.600325 21.057553 -4.422393 -1.795893 -13.038604 -1.356126 10.359981 -5.410411 2.386004 2.400242 -0.000000 0.000000 0.000000 
-0.999816 84.812683 2.126556 2.716446 -12.770249 -0.434524 8.690431 2.307808 -0.047353 1.453897 4.109407 0.871873 -10.509464 3.768383 1.535844 -2.948124 2.297525 -7.527577 8.361940 -0.479899 8.870112 -0.000000 -0.000000 -0.000000 -1.154535 1.299202 -3.848946 -0.812686 2.940124 -72.542278 -0.683064 -13.911981 -0.226318 -1.447709 3.429280 -3.576940 0.053254 -2.226942 -7.754216 0.100830 -0.802625 -17.736347 -0.015736 -0.445817 -9.562576 -0.000000 0.000000 0.000000 10.055344 -7.718893 19.723150 5.099420 19.830544 -9.762185 3.646291 6.268284 -0.559470 -0.000000 -0.000001 0.000000 1.181268 -0.990239 2.376179 2.833848 -0.638465 64.589834 0.691567 28.311827 -9.246406 -15.258547 17.305367 -8.494651 12.352762 8.310507 -19.175976 4.935306 -19.974815 9.738350 4.293343 -7.058227 0.776982 -0.000001 -0.000001 0.000003 0.728598 4.239120 8.632184 0.328726 0.980215 22.458738 0.154288 0.453762 10.478523 -0.000001 -0.000007 0.000001 -16.967202 12.565628 16.017772 21.581755 4.287183 1.316560 -5.203854 6.362896 -13.383252 -3.075415 -2.348388 -2.459411 0.000000 -0.000000 -0.000000 -9.817571 -7.817759 -7.388371 21.502257 -4.440969 -1.944668 -13.421311 -1.447706 10.341734 -5.409799 2.398585 2.380515 -0.000000 0.000001 -0.000000 
-1.155800 84.743813 2.260359 2.899153 -13.026700 -0.284387 8.534338 2.402938 -0.208917 1.167619 4.109295 0.797182 -10.825605 3.758380 1.414178 -2.771983 2.417804 -7.685137 8.970362 -0.523743 9.096810 0.000000 0.000000 0.000000 -1.074008 1.484017 -3.426773 -0.056178 3.543216 -72.274910 -0.966196 -13.413786 -0.399126 -2.070505 2.973366 -3.250522 0.043470 -1.375730 -9.364515 0.099363 -0.807159 -17.857743 -0.007365 -0.477181 -10.189438 -0.000000 0.000000 0.000001 10.819344 -7.720166 20.050328 4.931349 19.472803 -9.713460 4.435573 7.387618 -0.570629 -0.000000 -0.000000 0.000003 2.263208 -1.189117 1.777664 0.469209 -1.352066 63.660177 0.703839 31.193204 -11.300615 -15.672023 22.371535 -9.262162 14.325666 8.621306 -19.394394 4.694585 -19.691873 9.660094 5.355124 -8.504676 0.919938 -0.000004 -0.000000 -0.000001 0.925736 4.264810 10.614899 0.421972 1.071638 24.563242 0.229412 0.484735 11.488426 0.000001 0.000001 -0.000001 -16.934153 12.609932 16.116149 21.659822 4.377953 1.173466 -5.374333 6.481253 -13.509774 -3.075418 -2.348392 -2.459413 -0.000000 0.000001 -0.000000 -10.129194 -7.581333 -7.305738 21.939746 -4.409710 -2.138312 -13.751045 -1.514877 10.375856 -5.409161 2.411052 2.360748 -0.000000 0.000001 -0.000000 
-1.294341 84.695747 2.389684 3.021645 -13.193675 -0.096200 8.410775 2.461364 -0.401163 0.950886 4.022055 0.674583 -11.073640 3.671348 1.224496 -2.489002 2.542630 -7.800517 9.404869 -0.523463 9.229074 -0.000000 -0.000000 0.000000 -0.984681 1.446658 -2.884047 0.666048 4.362387 -72.024898 -1.292808 -13.006506 -0.549523 -2.347462 2.798554 -2.770711 0.082765 -0.526367 -10.972643 0.097911 -0.811722 -17.979206 0.001189 -0.508869 -10.816242 0.000001 0.000001 0.000003 11.593053 -7.730515 20.354818 4.729075 19.075117 -9.649646 5.219193 8.507223 -0.617061 -0.000000 0.000001 0.000003 3.376165 -1.280789 1.207324 -1.539134 -1.549622 62.624659 0.930550 35.480787 -12.956960 -14.711266 26.967390 -11.502911 16.524073 8.987743 -19.698990 4.415847 -19.381459 9.548294 6.413851 -9.946867 1.123476 -0.000000 -0.000001 0.000002 1.124339 4.309488 12.597733 0.511923 1.171179 26.667545 0.304307 0.520037 12.498231 0.000002 -0.000001 -0.000000 -16.976990 12.766949 16.065001 21.642749 4.156138 1.085361 -5.441464 6.500757 -13.478382 -3.075418 -2.348421 -2.459414 0.000000 0.000000 -0.000000 -10.365357 -7.552915 -7.371314 22.331556 -4.296281 -2.240385 -14.076353 -1.504726 10.367161 -5.408505 2.423346 2.340985 -0.000000 0.000001 -0.000000 
-1.423143 84.610901 2.554499 3.177767 -13.456741 0.062851 8.315311 2.559064 -0.572499 0.791323 4.000155 0.596780 -11.267031 3.637307 1.089620 -2.146501 2.690297 -7.901847 9.686807 -0.483772 9.258266 0.000001 0.000000 0.000000 -0.872618 1.193533 -2.385170 1.186895 5.132075 -71.757913 -1.649056 -12.405371 -0.684741 -2.638739 2.158513 -2.328820 0.162011 0.250811 -12.449493 0.096530 -0.815920 -18.090958 0.008901 -0.538241 -11.392269 0.000000 0.000001 0.000000 12.317844 -7.755242 20.603163 4.493800 18.651751 -9.569150 5.935036 9.535575 -0.690735 -0.000000 -0.000001 0.000000 4.477075 -1.497563 0.796650 -2.781151 -2.616975 61.812549 1.201819 43.690855 -14.876659 -10.972283 29.526054 -15.286027 18.873269 9.397339 -20.105061 4.104370 -19.056682 9.396922 7.385805 -11.266701 1.363988 -0.000002 -0.000001 -0.000001 1.307222 4.367306 14.419870 0.591542 1.269716 28.601014 0.372838 0.553424 13.426200 -0.000001 0.000000 -0.000000 -18.358276 13.652969 15.895862 22.675082 2.154633 1.253380 -6.513750 6.151400 -12.690312 -3.075414 -2.348399 -2.459409 0.000000 -0.000000 -0.000000 -10.673081 -7.451479 -7.386004 22.825261 -4.169528 -2.389362 -14.459007 -1.502515 10.397956 -5.407897 2.435752 2.321222 0.000000 0.000002 0.000000 
-1.538581 84.503876 2.742011 3.290606 -13.892744 0.153402 8.238491 2.696628 -0.741794 0.670896 4.046959 0.537083 -11.423776 3.665162 0.984606 -1.808757 2.885339 -8.007250 9.879699 -0.400451 9.179767 0.000000 -0.000000 -0.000000 -0.763928 0.680983 -1.783204 1.574728 5.888327 -71.583791 -2.012903 -11.770087 -0.856998 -3.033487 1.446849 -1.720226 0.258112 0.887142 -13.665751 0.095408 -0.819350 -18.182773 0.010017 -0.560053 -11.866684 0.000000 -0.000001 -0.000004 12.934741 -7.800748 20.762042 4.226825 18.216996 -9.470316 6.522088 10.381631 -0.773924 -0.000000 0.000001 0.000002 5.546713 -1.483286 0.688616 -4.005366 -4.882882 60.724507 1.627373 55.203983 -16.231466 -5.348838 29.687380 -20.142796 21.300350 9.832037 -20.627764 3.766517 -18.729803 9.199088 8.186729 -12.348645 1.600782 -0.000001 0.000002 -0.000000 1.457473 4.427020 15.920401 0.654511 1.355918 30.193145 0.428953 0.581306 14.190477 0.000004 -0.000001 0.000001 -20.435337 15.126002 15.790083 24.157949 -1.047306 1.470787 -7.835644 5.481936 -11.340112 -3.075432 -2.348404 -2.459410 0.000000 -0.000000 -0.000000 -10.976191 -7.339368 -7.372329 23.352125 -3.946019 -2.499369 -14.848659 -1.425521 10.398853 -5.407242 2.448055 2.301425 -0.000000 0.000001 -0.000000 
